<svg xmlns="http://www.w3.org/2000/svg" xmlns:xlink="http://www.w3.org/1999/xlink" version="1.1" data-diagram-type="DESCRIPTION" style="width:761px;height:495px;background:#FFFFFF;" width="761px" height="495px" viewBox="0 0 761 495" zoomAndPan="magnify" preserveAspectRatio="none" contentStyleType="text/css"><?plantuml 1.2026.8?><defs/><g font-family="sans-serif" lengthAdjust="spacing"><g class="title" data-source-line="2"><text x="315.203" y="23.535" fill="#000" font-size="14" textLength="123.676" font-weight="700">GuideApplication</text></g><!--cluster GuideApplication.GuideApplication_boundary--><g class="cluster" data-qualified-name="GuideApplication.GuideApplication_boundary" id="ent0001" data-source-line="1666"><rect x="14" y="41.488" width="708" height="342" fill="none" style="stroke:#444;stroke-width:1;stroke-dasharray:7,7;"/><text x="297.328" y="58.957" fill="#444" font-size="16" textLength="141.344" font-weight="700">GuideApplication</text><text x="334.493" y="73.934" fill="#444" font-size="12" textLength="67.014" font-weight="700">[container]</text></g><!--entity GuideApplication.GuideApplication.Taxonomy--><g class="entity" data-qualified-name="GuideApplication.GuideApplication_boundary.GuideApplication.GuideApplication.Taxonomy" id="ent0002" data-source-line="78"><rect x="376" y="207.488" width="105.688" height="52.977" fill="#85BBF0" style="stroke:#78A8D8;stroke-width:0.5;"/><text x="386" y="232.957" fill="#000" font-size="16" textLength="85.688" font-weight="700">Taxonomy</text><text x="403.511" y="247.934" fill="#000" font-size="12" textLength="50.666" font-style="italic">[Module]</text></g><!--entity GuideApplication.GuideApplication.Backup--><g class="entity" data-qualified-name="GuideApplication.GuideApplication_boundary.GuideApplication.GuideApplication.Backup" id="ent0003" data-source-line="78"><rect x="626.5" y="100.488" width="79.234" height="52.977" fill="#85BBF0" style="stroke:#78A8D8;stroke-width:0.5;"/><text x="636.5" y="125.957" fill="#000" font-size="16" textLength="59.234" font-weight="700">Backup</text><text x="640.784" y="140.934" fill="#000" font-size="12" textLength="50.666" font-style="italic">[Module]</text></g><!--entity GuideApplication.GuideApplication.Contribute--><g class="entity" data-qualified-name="GuideApplication.GuideApplication_boundary.GuideApplication.GuideApplication.Contribute" id="ent0004" data-source-line="78"><rect x="452" y="100.488" width="108.055" height="52.977" fill="#85BBF0" style="stroke:#78A8D8;stroke-width:0.5;"/><text x="462" y="125.957" fill="#000" font-size="16" textLength="88.055" font-weight="700">Contribute</text><text x="480.694" y="140.934" fill="#000" font-size="12" textLength="50.666" font-style="italic">[Module]</text></g><!--entity GuideApplication.GuideApplication.Moderate--><g class="entity" data-qualified-name="GuideApplication.GuideApplication_boundary.GuideApplication.GuideApplication.Moderate" id="ent0005" data-source-line="78"><rect x="30.5" y="100.488" width="97.258" height="52.977" fill="#85BBF0" style="stroke:#78A8D8;stroke-width:0.5;"/><text x="40.5" y="125.957" fill="#000" font-size="16" textLength="77.258" font-weight="700">Moderate</text><text x="53.796" y="140.934" fill="#000" font-size="12" textLength="50.666" font-style="italic">[Module]</text></g><!--entity GuideApplication.GuideApplication.Shared--><g class="entity" data-qualified-name="GuideApplication.GuideApplication_boundary.GuideApplication.GuideApplication.Shared" id="ent0006" data-source-line="78"><rect x="438" y="314.488" width="76.305" height="52.977" fill="#85BBF0" style="stroke:#78A8D8;stroke-width:0.5;"/><text x="448" y="339.957" fill="#000" font-size="16" textLength="56.305" font-weight="700">Shared</text><text x="450.819" y="354.934" fill="#000" font-size="12" textLength="50.666" font-style="italic">[Module]</text></g><!--entity GuideApplication.GuideApplication.Wikilink--><g class="entity" data-qualified-name="GuideApplication.GuideApplication_boundary.GuideApplication.GuideApplication.Wikilink" id="ent0007" data-source-line="78"><rect x="210" y="207.488" width="86.031" height="52.977" fill="#85BBF0" style="stroke:#78A8D8;stroke-width:0.5;"/><text x="220" y="232.957" fill="#000" font-size="16" textLength="66.031" font-weight="700">Wikilink</text><text x="227.683" y="247.934" fill="#000" font-size="12" textLength="50.666" font-style="italic">[Module]</text></g><!--entity GuideApplication.GuideApplication.Articleview--><g class="entity" data-qualified-name="GuideApplication.GuideApplication_boundary.GuideApplication.GuideApplication.Articleview" id="ent0008" data-source-line="78"><rect x="235" y="100.488" width="111.711" height="52.977" fill="#85BBF0" style="stroke:#78A8D8;stroke-width:0.5;"/><text x="245" y="125.957" fill="#000" font-size="16" textLength="91.711" font-weight="700">Articleview</text><text x="265.522" y="140.934" fill="#000" font-size="12" textLength="50.666" font-style="italic">[Module]</text></g><!--entity GuideApplication.GuideApplication.Home--><g class="entity" data-qualified-name="GuideApplication.GuideApplication_boundary.GuideApplication.GuideApplication.Home" id="ent0009" data-source-line="78"><rect x="145.5" y="100.488" width="70.666" height="52.977" fill="#85BBF0" style="stroke:#78A8D8;stroke-width:0.5;"/><text x="157.036" y="125.957" fill="#000" font-size="16" textLength="47.594" font-weight="700">Home</text><text x="155.5" y="140.934" fill="#000" font-size="12" textLength="50.666" font-style="italic">[Module]</text></g><g class="link" data-entity-1="ent0009" data-entity-2="ent0007" id="lnk10" data-link-type="dependency"><polygon points="209.74,220.382,203.654,214.386,201.212,219.867,209.74,220.382" fill="#666" style="stroke:#666;stroke-width:1;stroke-linejoin:miter;stroke-miterlimit:10;"/><path d="M169.405,153.705 C165.955,165.335 164.588,178.828 171,189.488 C179.639,203.85 187.484,210.467 202.433,217.126" style="stroke:#666;stroke-width:1;" fill="none"/><text x="173" y="185.09" fill="#666" font-size="12" textLength="52.582" font-weight="700">depends</text><text x="225.582" y="185.09" fill="#666" font-size="12" font-weight="700"> </text><text x="229.537" y="185.09" fill="#666" font-size="12" textLength="15.545" font-weight="700">on</text></g><g class="link" data-entity-1="ent0004" data-entity-2="ent0006" id="lnk11" data-link-type="dependency"><polygon points="501.358,314.327,508.693,309.945,504.003,306.203,501.358,314.327" fill="#666" style="stroke:#666;stroke-width:1;stroke-linejoin:miter;stroke-miterlimit:10;"/><path d="M560.194,139.111 C592.268,146.917 628.454,158.292 638,171.488 C642.689,177.97 643.162,183.376 638,189.488 C607.168,225.997 566.494,174.418 532,207.488 C502.804,235.48 530.868,260.202 513,296.488 C509.934,302.714 510.768,302.535 506.348,308.074" style="stroke:#666;stroke-width:1;" fill="none"/><text x="534" y="238.59" fill="#666" font-size="12" textLength="52.582" font-weight="700">depends</text><text x="586.582" y="238.59" fill="#666" font-size="12" font-weight="700"> </text><text x="590.537" y="238.59" fill="#666" font-size="12" textLength="15.545" font-weight="700">on</text></g><g class="link" data-entity-1="ent0004" data-entity-2="ent0007" id="lnk12" data-link-type="dependency"><polygon points="296.048,210.17,304.488,208.841,301.533,203.619,296.048,210.17" fill="#666" style="stroke:#666;stroke-width:1;stroke-linejoin:miter;stroke-miterlimit:10;"/><path d="M451.7,138.044 C421.563,144.929 384.014,155.714 353,171.488 C341.43,177.373 340.792,182.276 330,189.488 C319.277,196.655 314.263,199.861 303.01,206.23" style="stroke:#666;stroke-width:1;" fill="none"/><text x="355" y="185.09" fill="#666" font-size="12" textLength="52.582" font-weight="700">depends</text><text x="407.582" y="185.09" fill="#666" font-size="12" font-weight="700"> </text><text x="411.537" y="185.09" fill="#666" font-size="12" textLength="15.545" font-weight="700">on</text></g><g class="link" data-entity-1="ent0004" data-entity-2="ent0002" id="lnk13" data-link-type="dependency"><polygon points="467.175,207.458,475.184,204.483,471.253,199.95,467.175,207.458" fill="#666" style="stroke:#666;stroke-width:1;stroke-linejoin:miter;stroke-miterlimit:10;"/><path d="M500.251,153.765 C496.816,165.408 491.604,178.894 484,189.488 C479.315,196.016 479.433,196.827 473.219,202.217" style="stroke:#666;stroke-width:1;" fill="none"/><text x="496" y="185.09" fill="#666" font-size="12" textLength="28.482" font-weight="700">uses</text></g><g class="link" data-entity-1="ent0005" data-entity-2="ent0006" id="lnk14" data-link-type="dependency"><polygon points="437.979,340.037,430.055,336.842,429.909,342.841,437.979,340.037" fill="#666" style="stroke:#666;stroke-width:1;stroke-linejoin:miter;stroke-miterlimit:10;"/><path d="M73.192,153.63 C71.694,164.865 71.381,178.064 75,189.488 C86.655,226.281 92.93,239.016 125,260.488 C223.775,326.622 361.595,338.171 429.982,339.842" style="stroke:#666;stroke-width:1;" fill="none"/><text x="127" y="238.59" fill="#666" font-size="12" textLength="52.582" font-weight="700">depends</text><text x="179.582" y="238.59" fill="#666" font-size="12" font-weight="700"> </text><text x="183.537" y="238.59" fill="#666" font-size="12" textLength="15.545" font-weight="700">on</text></g><g class="link" data-entity-1="ent0005" data-entity-2="ent0007" id="lnk15" data-link-type="dependency"><polygon points="209.74,224.256,202.53,219.672,201.294,225.544,209.74,224.256" fill="#666" style="stroke:#666;stroke-width:1;stroke-linejoin:miter;stroke-miterlimit:10;"/><path d="M76.146,153.714 C76.209,165.907 78.533,179.872 87,189.488 C95.22,198.824 155.529,212.843 201.912,222.608" style="stroke:#666;stroke-width:1;" fill="none"/><text x="89" y="185.09" fill="#666" font-size="12" textLength="52.582" font-weight="700">depends</text><text x="141.582" y="185.09" fill="#666" font-size="12" font-weight="700"> </text><text x="145.537" y="185.09" fill="#666" font-size="12" textLength="15.545" font-weight="700">on</text></g><g class="link" data-entity-1="ent0005" data-entity-2="ent0002" id="lnk16" data-link-type="dependency"><polygon points="436.432,207.262,440.611,199.809,434.68,198.899,436.432,207.262" fill="#666" style="stroke:#666;stroke-width:1;stroke-linejoin:miter;stroke-miterlimit:10;"/><path d="M127.727,151.123 C130.494,152.016 133.263,152.816 136,153.488 C167.674,161.273 406.655,147.728 429,171.488 C437.778,180.822 439.54,187.011 437.645,199.354" style="stroke:#666;stroke-width:1;" fill="none"/><text x="439" y="185.09" fill="#666" font-size="12" textLength="28.482" font-weight="700">uses</text></g><g class="link" data-entity-1="ent0008" data-entity-2="ent0007" id="lnk17" data-link-type="dependency"><polygon points="249.603,207.427,252.209,199.29,246.216,199.583,249.603,207.427" fill="#666" style="stroke:#666;stroke-width:1;stroke-linejoin:miter;stroke-miterlimit:10;"/><path d="M264.293,153.705 C260.104,159.154 256.378,165.18 254,171.488 C249.743,182.779 248.66,188.094 249.213,199.436" style="stroke:#666;stroke-width:1;" fill="none"/><text x="256" y="185.09" fill="#666" font-size="12" textLength="52.582" font-weight="700">depends</text><text x="308.582" y="185.09" fill="#666" font-size="12" font-weight="700"> </text><text x="312.537" y="185.09" fill="#666" font-size="12" textLength="15.545" font-weight="700">on</text></g><g class="link" data-entity-1="ent0003" data-entity-2="ent0007" id="lnk18" data-link-type="dependency"><polygon points="296.087,222.174,304.563,223.25,303.181,217.412,296.087,222.174" fill="#666" style="stroke:#666;stroke-width:1;stroke-linejoin:miter;stroke-miterlimit:10;"/><path d="M626.304,142.984 C606.417,150.86 582.134,161.033 561,171.488 C546.72,178.553 545.133,184.506 530,189.488 C460.77,212.279 438.895,195.515 367,207.488 C343.394,211.42 325.113,215.301 303.872,220.331" style="stroke:#666;stroke-width:1;" fill="none"/><text x="563" y="185.09" fill="#666" font-size="12" textLength="52.582" font-weight="700">depends</text><text x="615.582" y="185.09" fill="#666" font-size="12" font-weight="700"> </text><text x="619.537" y="185.09" fill="#666" font-size="12" textLength="15.545" font-weight="700">on</text></g><g class="link" data-entity-1="ent0003" data-entity-2="ent0006" id="lnk19" data-link-type="dependency"><polygon points="514.267,327.103,522.811,327.043,520.665,321.44,514.267,327.103" fill="#666" style="stroke:#666;stroke-width:1;stroke-linejoin:miter;stroke-miterlimit:10;"/><path d="M686.126,153.644 C692.362,164.762 696.352,177.868 691,189.488 C657.075,263.153 573.853,304.277 521.738,324.242" style="stroke:#666;stroke-width:1;" fill="none"/><text x="681" y="238.59" fill="#666" font-size="12" textLength="52.582" font-weight="700">depends</text><text x="733.582" y="238.59" fill="#666" font-size="12" font-weight="700"> </text><text x="737.537" y="238.59" fill="#666" font-size="12" textLength="15.545" font-weight="700">on</text></g><g class="link" data-entity-1="ent0003" data-entity-2="ent0002" id="lnk20" data-link-type="dependency"><polygon points="482.024,211.489,490.558,211.912,488.732,206.196,482.024,211.489" fill="#666" style="stroke:#666;stroke-width:1;stroke-linejoin:miter;stroke-miterlimit:10;"/><path d="M661.878,153.555 C658.461,166.328 652.25,180.863 641,189.488 C615.232,209.244 527.511,199.657 496,207.488 C491.41,208.629 494.327,207.559 489.645,209.054" style="stroke:#666;stroke-width:1;" fill="none"/><text x="657" y="185.09" fill="#666" font-size="12" textLength="28.482" font-weight="700">uses</text></g><g class="link" data-entity-1="ent0002" data-entity-2="ent0006" id="lnk21" data-link-type="dependency"><polygon points="448.446,314.208,445.687,306.122,441.051,309.93,448.446,314.208" fill="#666" style="stroke:#666;stroke-width:1;stroke-linejoin:miter;stroke-miterlimit:10;"/><path d="M428.951,260.767 C429.773,272.151 431.927,285.43 437,296.488 C439.876,302.757 438.898,302.583 443.369,308.026" style="stroke:#666;stroke-width:1;" fill="none"/><text x="439" y="292.09" fill="#666" font-size="12" textLength="52.582" font-weight="700">depends</text><text x="491.582" y="292.09" fill="#666" font-size="12" font-weight="700"> </text><text x="495.537" y="292.09" fill="#666" font-size="12" textLength="15.545" font-weight="700">on</text></g><g class="legend" data-source-line="1576"><rect x="574.011" y="420.488" width="163.071" height="16.488" fill="none" style="stroke:none;"/><text x="574.011" y="434.023" fill="#000" font-size="14" textLength="52.254" font-weight="700">Legend</text><text x="630.879" y="434.023" fill="#FFF" font-size="14"> </text><rect x="574.011" y="436.977" width="163.071" height="16.488" fill="#85BBF0" style="stroke:none;"/><text x="578.44" y="450.512" fill="#78A8D8" font-size="14">▯</text><text x="586.869" y="450.512" fill="#FFF" font-size="14"> </text><text x="595.729" y="450.512" fill="#000" font-size="14" textLength="76.665">component</text><text x="676.823" y="450.512" fill="#FFF" font-size="14"> </text><rect x="574.011" y="453.465" width="163.071" height="16.488" fill="none" style="stroke:none;"/><text x="578.44" y="467" fill="#444" font-size="14">▯</text><text x="586.869" y="467" fill="#FFF" font-size="14"> </text><text x="595.729" y="467" fill="#444" font-size="14" textLength="132.494">container boundary</text><text x="732.652" y="467" fill="#FFF" font-size="14"> </text><line x1="574.011" y1="420.488" x2="737.082" y2="420.488" style="stroke:none;"/><line x1="574.011" y1="436.977" x2="737.082" y2="436.977" style="stroke:none;"/><line x1="574.011" y1="453.465" x2="737.082" y2="453.465" style="stroke:none;"/><line x1="574.011" y1="469.953" x2="737.082" y2="469.953" style="stroke:none;"/><line x1="574.011" y1="420.488" x2="574.011" y2="469.953" style="stroke:none;"/><line x1="737.082" y1="420.488" x2="737.082" y2="469.953" style="stroke:none;"/></g><?plantuml-src rPNVJy8m4CVV-rVKnGT83BxmA2Q011xyaOW9ZqjPBzAmjKrxLOZnVxTrp25gPCO6VThrhhlFDtUtcmMa5ZGp39MXKaaWA307EdQ2Gr_hN6GCXPA4eD8K5PqhH5LGBWnaPU18o2nt7EZPi7iwx9xlEjAXaWWh_2nGQ8-KFaJ29IOac7IWdEJCh5l9heZEhYETR-uc9_J3RUyxHdPlUqdIfa-4qZTSwzl4dJksKb8LQv-tCb_pGRQGlUHASPT3S72mcV64ckMjNCXbe3Pa3bYsTDeJIoCwBvJSYBb3yCpw49thiu8Vk42jpEZCwO8Pu9vO6j5vCx4KuLLFhCpepBv1aUNm8E3HOxTEqSaJLOHkXiSFMC-4t4A-DwPHyJbeaDpIpJeeXNsXOpyHsrzDWxaxj90_L9EjtUeisDyIKQ-LWxQbYOoeJMaY959Btcsa0vUZ-hl-6naHPtH_4P46equRgGvaEhcPfPUZyUZweeN6GVi5?></g></svg>